<?xml version="1.0" standalone="no"?>
<!DOCTYPE svg PUBLIC "-//W3C//DTD SVG 20010904//EN"
 "http://www.w3.org/TR/2001/REC-SVG-20010904/DTD/svg10.dtd">
<svg version="1.0" xmlns="http://www.w3.org/2000/svg"
 width="3762.000000pt" height="2835.000000pt" viewBox="0 0 3762.000000 2835.000000"
 preserveAspectRatio="xMidYMid meet">

<g transform="translate(0.000000,2835.000000) scale(0.100000,-0.100000)"
fill="#000000" stroke="none">
<path d="M15135 23109 c-272 -39 -538 -197 -706 -418 -69 -91 -153 -266 -186
-386 l-28 -100 0 -8030 0 -8030 26 -96 c57 -206 148 -367 285 -503 99 -99 178
-155 305 -215 120 -57 225 -87 359 -101 137 -14 7128 -14 7256 1 141 15 236
43 359 103 231 114 388 270 501 501 61 127 89 223 104 369 9 76 10 2240 6
8032 -4 6936 -6 7938 -19 8004 -75 379 -337 685 -697 814 -181 66 169 60
-3855 62 -2028 1 -3677 -2 -3710 -7z m7315 -160 c171 -21 355 -103 488 -216
84 -72 170 -187 223 -298 88 -185 81 -91 90 -1240 4 -561 5 -3739 1 -7062 l-5
-6043 -4439 0 -4438 0 0 6983 c0 4881 3 7009 11 7072 14 117 64 265 125 367
57 95 181 226 273 288 112 75 262 132 392 149 99 13 7176 13 7279 0z m798
-15916 l-3 -898 -23 -73 c-49 -160 -114 -271 -226 -390 -124 -130 -302 -230
-478 -266 -70 -14 -428 -16 -3701 -16 -2488 0 -3642 3 -3683 11 -363 64 -651
338 -741 706 -15 60 -17 166 -20 946 l-4 877 4441 0 4441 0 -3 -897z"/>
<path d="M15260 19810 l0 -1540 835 0 835 0 0 258 c0 141 -3 267 -6 280 l-6
22 -539 0 -539 0 0 355 0 355 520 0 520 0 0 280 0 280 -520 0 -520 0 0 345 0
345 545 0 545 0 0 258 c0 141 -3 267 -6 280 l-6 22 -829 0 -829 0 0 -1540z"/>
<path d="M17167 21192 c59 -87 297 -434 528 -771 231 -337 419 -616 418 -620
-1 -3 -240 -347 -532 -764 -292 -417 -531 -760 -531 -763 0 -2 150 -4 333 -4
l334 0 362 520 c200 286 366 520 370 520 4 0 170 -234 370 -520 l363 -520 334
0 c184 0 334 2 334 5 0 3 -235 344 -521 758 -287 413 -524 757 -526 764 -4 9
833 1227 1034 1506 l35 47 -344 0 -343 -1 -364 -538 -365 -539 -26 37 c-14 20
-178 262 -365 539 l-338 502 -334 0 -334 0 108 -158z"/>
<path d="M16549 17155 c-192 -31 -321 -74 -488 -160 -140 -73 -263 -166 -391
-295 -219 -220 -355 -468 -420 -765 -81 -372 -32 -793 129 -1115 160 -319 442
-595 756 -740 227 -105 451 -147 724 -137 302 11 564 97 821 269 115 77 296
249 376 358 64 88 164 256 164 277 0 10 -67 13 -326 13 l-327 0 -86 -83 c-172
-165 -329 -239 -571 -268 -316 -38 -608 67 -830 297 -213 221 -310 458 -310
757 0 362 172 687 466 883 171 114 326 158 559 157 129 0 164 -4 250 -27 185
-48 334 -134 464 -267 l78 -79 326 0 c180 0 327 2 327 5 0 3 -14 33 -30 66
-219 434 -614 735 -1098 840 -127 27 -435 35 -563 14z"/>
<path d="M18540 16357 c0 -409 -3 -1102 -7 -1540 l-6 -797 771 0 772 0 0 280
0 280 -480 0 -480 0 0 1260 0 1260 -285 0 -285 0 0 -743z"/>
<path d="M20303 15978 c3 -1006 5 -1131 20 -1198 53 -236 138 -392 298 -545
221 -211 475 -306 783 -292 150 6 248 31 382 97 291 142 505 396 579 688 32
124 35 245 35 1305 l0 1067 -290 0 -290 0 0 -1062 c-1 -854 -3 -1078 -14
-1140 -28 -156 -133 -295 -273 -361 -64 -30 -74 -32 -173 -31 -79 1 -119 7
-162 22 -175 63 -280 199 -307 396 -7 51 -11 432 -11 1127 l0 1049 -290 0
-291 0 4 -1122z"/>
<path d="M16001 12915 c-190 -42 -323 -115 -462 -255 -167 -168 -239 -365
-225 -615 13 -247 92 -440 244 -598 108 -111 234 -183 442 -252 216 -71 374
-145 456 -212 156 -128 191 -369 77 -540 -108 -163 -343 -227 -522 -143 -130
62 -221 182 -221 292 l0 58 -300 0 -300 0 0 -67 c0 -314 275 -691 592 -813
146 -57 196 -65 398 -64 212 1 283 14 428 84 111 53 162 89 261 184 177 172
272 362 301 601 35 293 -52 551 -251 741 -127 120 -255 190 -569 309 -250 95
-308 123 -371 182 -73 68 -102 136 -107 248 -4 82 -2 96 21 141 28 56 102 129
151 149 81 34 204 27 289 -17 94 -47 167 -146 167 -224 0 -21 4 -45 8 -52 7
-9 73 -12 298 -10 l289 3 -1 86 c-4 198 -89 377 -254 533 -190 179 -410 267
-665 265 -60 0 -139 -7 -174 -14z"/>
<path d="M17403 11738 c3 -1006 5 -1131 20 -1198 54 -242 140 -395 310 -556
139 -131 300 -218 482 -260 62 -15 118 -19 250 -18 154 1 178 3 258 27 183 56
356 165 496 312 159 167 244 352 271 585 6 50 10 526 10 1158 l0 1072 -290 0
-289 0 -4 -1097 c-2 -962 -5 -1104 -18 -1148 -56 -177 -191 -311 -347 -344
-70 -15 -113 -14 -197 4 -175 37 -299 154 -352 331 -16 54 -18 143 -21 1157
l-3 1097 -290 0 -290 0 4 -1122z"/>
<path d="M19770 11320 l0 -1540 295 0 295 0 2 574 3 575 398 -575 399 -574
355 0 355 0 -29 38 c-504 683 -796 1081 -797 1087 -1 5 45 23 100 41 177 57
275 117 395 240 182 188 276 404 286 659 12 291 -78 536 -266 726 -119 119
-234 188 -396 238 -148 46 -223 51 -827 51 l-568 0 0 -1540z m1182 953 c108
-40 218 -135 262 -226 37 -76 52 -179 39 -264 -18 -116 -48 -179 -117 -248
-117 -117 -183 -135 -523 -142 l-253 -6 0 458 0 457 268 -4 c240 -4 273 -6
324 -25z"/>
<path d="M19998 7139 c-203 -29 -337 -225 -338 -496 0 -225 85 -405 224 -472
99 -49 243 -49 342 -1 98 48 178 160 210 297 22 90 21 267 0 357 -54 226 -220
345 -438 315z m198 -97 c136 -70 209 -282 172 -504 -36 -221 -136 -328 -307
-328 -165 1 -269 102 -307 297 -51 266 39 496 216 554 47 16 181 4 226 -19z"/>
<path d="M21196 7125 c-98 -35 -156 -118 -156 -223 0 -135 55 -189 270 -267
68 -25 141 -57 161 -71 93 -64 103 -213 20 -295 -41 -41 -91 -59 -167 -59
-121 0 -210 69 -238 183 -6 24 -11 27 -47 27 l-40 0 7 -37 c17 -97 70 -170
152 -210 52 -26 67 -28 167 -28 96 0 116 3 155 24 96 50 140 116 148 221 11
163 -65 245 -303 324 -160 53 -200 91 -200 191 0 69 15 99 69 139 33 25 155
35 208 17 49 -16 95 -65 115 -122 17 -47 19 -49 56 -49 l39 0 -7 37 c-16 84
-68 151 -150 189 -40 19 -66 24 -135 23 -47 0 -102 -6 -124 -14z"/>
<path d="M16242 6943 c-35 -104 -109 -324 -166 -490 l-103 -303 42 0 41 0 55
168 54 167 190 0 189 0 55 -167 56 -168 42 0 c24 0 43 2 43 3 0 4 -272 781
-317 905 l-26 72 -46 0 -46 0 -63 -187z m193 -146 l81 -232 -159 -3 c-88 -1
-161 -1 -163 1 -2 2 30 103 71 226 41 122 75 229 75 238 0 35 17 -6 95 -230z"/>
<path d="M17280 6783 c0 -379 6 -436 53 -516 54 -92 132 -129 277 -130 139 -1
222 34 280 118 56 82 60 114 60 512 l0 363 -40 0 -40 0 0 -353 c0 -393 -4
-427 -63 -494 -46 -53 -97 -73 -188 -73 -139 0 -224 68 -249 199 -5 30 -10
203 -10 387 l0 334 -40 0 -40 0 0 -347z"/>
<path d="M18520 7095 l0 -35 150 0 150 0 0 -455 0 -455 40 0 40 0 0 455 0 455
150 0 150 0 0 35 0 35 -340 0 -340 0 0 -35z"/>
</g>
</svg>
